<?xml version="1.0" encoding="UTF-8"?>
<svg data-name="Layer 1" viewBox="0 0 678.3 733" xmlns="http://www.w3.org/2000/svg" xmlns:xlink="http://www.w3.org/1999/xlink">
<defs>
<linearGradient id="a" x1="585.48" x2="585.48" y1="733" y2="673.63" gradientUnits="userSpaceOnUse">
<stop stop-color="gray" stop-opacity=".25" offset="0"/>
<stop stop-color="gray" stop-opacity=".12" offset=".54"/>
<stop stop-color="gray" stop-opacity=".1" offset="1"/>
</linearGradient>
<linearGradient id="n" x1="93.98" x2="93.98" y2="673.63" xlink:href="#a"/>
<linearGradient id="b" x1="339.15" x2="339.15" y1="681.8" xlink:href="#a"/>
<linearGradient id="e" x1="339.15" x2="339.15" y1="569.14" y2="111.49" xlink:href="#a"/>
<linearGradient id="g" x1="806.95" x2="806.95" y1="427.79" y2="354.24" gradientTransform="translate(-.46 -24.57)" xlink:href="#a"/>
<linearGradient id="l" x1="780.89" x2="780.89" y1="503.2" y2="429.65" gradientTransform="translate(1269.9 -306.54) rotate(90)" xlink:href="#a"/>
<linearGradient id="c" x1="565.48" x2="565.48" y1="376.26" y2="302.71" xlink:href="#a"/>
<linearGradient id="m" x1="339.15" x2="339.15" y1="423.21" y2="255.09" xlink:href="#a"/>
<linearGradient id="o" x1="290.11" x2="290.11" y1="525.36" y2="499.67" xlink:href="#a"/>
<linearGradient id="k" x1="322.8" x2="322.8" y1="525.36" y2="499.67" xlink:href="#a"/>
<linearGradient id="j" x1="355.49" x2="355.49" y1="525.36" y2="499.67" xlink:href="#a"/>
<linearGradient id="i" x1="388.18" x2="388.18" y1="525.36" y2="499.67" xlink:href="#a"/>
<linearGradient id="f" x1="339.15" x2="339.15" y1="389.93" y2="288.36" xlink:href="#a"/>
<linearGradient id="d" x1="377.6" x2="377.6" y1="380.54" y2="283.64" xlink:href="#a"/>
<linearGradient id="h" x1="377.6" x2="377.6" y1="563.83" y2="466.93" xlink:href="#a"/>
</defs>
<title>vault</title>
<rect x="560.38" y="673.63" width="50.2" height="59.37" fill="url(#a)"/>
<rect transform="translate(1431.8 1488.5) rotate(180)" x="822.4" y="757.63" width="47.87" height="57.21" fill="#f5f5f5"/>
<rect x="68.88" y="673.63" width="50.2" height="59.37" fill="url(#n)"/>
<rect x="70.05" y="673.63" width="47.87" height="57.21" fill="#f5f5f5"/>
<rect width="678.3" height="681.8" rx="14.86" ry="14.86" fill="url(#b)"/>
<rect x="4.67" y="3.5" width="670.12" height="670.12" rx="14.86" ry="14.86" fill="#fafafa"/>
<rect x="112.66" y="111.49" width="452.98" height="457.65" fill="url(#e)"/>
<rect transform="translate(-327.85 135.06) rotate(-14.86)" x="731.19" y="329.67" width="150.6" height="73.55" fill="url(#g)"/>
<rect transform="translate(-327.85 135.06) rotate(-14.86)" x="732.35" y="330.84" width="148.27" height="71.22" fill="#fff"/>
<rect transform="translate(-327.85 135.06) rotate(-14.86)" x="737.22" y="333.17" width="138.55" height="66.55" fill="#69f0ae"/>
<ellipse transform="translate(-327.77 134.87) rotate(-14.86)" cx="805.77" cy="366.03" rx="25.68" ry="14.01" fill="#fff"/>
<rect transform="translate(-167.04 996.12) rotate(-71.04)" x="766.71" y="399.05" width="73.55" height="150.6" fill="url(#l)"/>
<rect transform="translate(-63.14 -319.33) rotate(18.96)" x="729.35" y="438.74" width="148.27" height="71.22" fill="#fff"/>
<rect transform="translate(-63.14 -319.33) rotate(18.96)" x="734.22" y="441.08" width="138.55" height="66.55" fill="#69f0ae"/>
<ellipse transform="translate(-166.58 995.28) rotate(-71.04)" cx="803.13" cy="473.61" rx="14.01" ry="25.68" fill="#fff"/>
<rect x="490.18" y="302.71" width="150.6" height="73.55" fill="url(#c)"/>
<rect x="491.35" y="303.88" width="148.27" height="71.22" fill="#fff"/>
<rect x="496.21" y="306.21" width="138.55" height="66.55" fill="#69f0ae"/>
<ellipse cx="564.9" cy="338.9" rx="25.68" ry="14.01" fill="#fff"/>
<rect x="116.16" y="116.16" width="445.97" height="445.97" fill="#fff"/>
<circle cx="339.15" cy="339.15" r="84.06" fill="url(#m)"/>
<circle cx="339.15" cy="339.15" r="80.56" fill="#fafafa"/>
<rect x="277.86" y="499.67" width="24.52" height="25.68" fill="url(#o)"/>
<rect x="310.55" y="499.67" width="24.52" height="25.68" fill="url(#k)"/>
<rect x="343.23" y="499.67" width="24.52" height="25.68" fill="url(#j)"/>
<rect x="375.92" y="499.67" width="24.52" height="25.68" fill="url(#i)"/>
<rect x="278.44" y="500.84" width="23.35" height="23.35" fill="#266afb"/>
<rect x="311.13" y="500.84" width="23.35" height="23.35" fill="#266afb" opacity=".7"/>
<rect x="343.82" y="500.84" width="23.35" height="23.35" fill="#266afb" opacity=".5"/>
<rect x="376.51" y="500.84" width="23.35" height="23.35" fill="#266afb" opacity=".3"/>
<rect transform="translate(71.2 -377.18) rotate(35)" x="628.61" y="371.8" width="4.67" height="16.34" fill="#266afb"/>
<rect transform="translate(1123.2 103.69) rotate(125)" x="640.84" y="445.92" width="4.67" height="16.34" fill="#266afb"/>
<rect transform="translate(506.87 1090.7) rotate(215)" x="566.72" y="458.15" width="4.67" height="16.34" fill="#266afb"/>
<rect transform="translate(-344.68 539.37) rotate(-55)" x="554.49" y="384.03" width="4.67" height="16.34" fill="#266afb"/>
<rect transform="translate(71.11 -377.18) rotate(35)" x="628.57" y="371.66" width="4.67" height="16.34" opacity=".2"/>
<rect transform="translate(1123 103.5) rotate(125)" x="640.81" y="445.78" width="4.67" height="16.34" opacity=".2"/>
<rect transform="translate(506.88 1090.4) rotate(215)" x="566.68" y="458.02" width="4.67" height="16.34" opacity=".2"/>
<rect transform="translate(-344.58 539.28) rotate(-55)" x="554.45" y="383.89" width="4.67" height="16.34" opacity=".2"/>
<circle cx="339.15" cy="339.15" r="50.78" fill="url(#f)"/>
<circle cx="339.15" cy="339.15" r="47.87" fill="#266afb"/>
<path transform="translate(-260.85 -84)" d="m560.89 429.57a47.86 47.86 0 0 1 71.67-41.57 47.86 47.86 0 1 0-57 76 47.71 47.71 0 0 1-14.67-34.43z" fill="#fff" opacity=".2"/>
<path transform="translate(-260.85 -84)" d="m396.28 380.54h-37.36v-93.28a3.63 3.63 0 0 1 3.63-3.62h30.11a3.63 3.63 0 0 1 3.63 3.63z" fill="url(#d)"/>
<path transform="translate(-260.85 -84)" d="m392.47 563.83h-29.74a3.81 3.81 0 0 1-3.81-3.81v-93.09h37.36v93.07a3.81 3.81 0 0 1-3.81 3.83z" fill="url(#h)"/>
<path d="m102.4 200.8h28.69a3.17 3.17 0 0 1 3.17 3.17v90.23h-35v-90.2a3.17 3.17 0 0 1 3.14-3.2z" fill="#fafafa"/>
<path d="m99.23 384.1h35v92.33a1.06 1.06 0 0 1-1.06 1.06h-32.87a1.06 1.06 0 0 1-1.06-1.06v-92.33a0 0 0 0 1-0.01 0z" fill="#fafafa"/>
</svg>
